<?xml version="1.0" encoding="utf-8"?>
<!-- Svg Vector Icons : http://www.onlinewebfonts.com/icon -->
<!DOCTYPE svg PUBLIC "-//W3C//DTD SVG 1.1//EN" "http://www.w3.org/Graphics/SVG/1.1/DTD/svg11.dtd">
<svg version="1.1" xmlns="http://www.w3.org/2000/svg" xmlns:xlink="http://www.w3.org/1999/xlink" x="0px" y="0px" viewBox="0 0 256 256" enable-background="new 0 0 256 256" xml:space="preserve">
<metadata> Svg Vector Icons : http://www.onlinewebfonts.com/icon </metadata>
<g><g><g><path fill="currentColor" d="M110.6,22.4v12.4l-4.5,1.5c-23.9,7.9-38.4,25.8-39.6,48.9c-1.1,19,7.4,34.5,25,46.1c6.2,4.1,14.4,8.1,25.8,12.6c23.6,9.3,29.8,14.6,29.8,25.4c0,9.7-8.7,16.3-22.9,17.1c-11.2,0.7-25.7-2.4-37.2-8.1c-4.5-2.2-4.6-2.2-5.2-1.2c-0.4,0.6-4.6,7.8-9.4,16.2l-8.8,15.2l1.3,1.1c2.4,2,12.8,6.9,18.5,8.8c6.6,2.2,15.3,4.1,22.1,4.8l4.8,0.6l0.1,11.2l0.1,11.2h18h18v-12.6v-12.5l5-1.6c9.9-3.1,18-7.9,25-14.8c7.9-7.9,12.6-16.4,15-27.2c1.2-5.5,1.2-18.4,0-24c-2.8-12.8-8.9-22.4-19.4-30.7c-7.4-5.8-15.6-10.1-29.5-15.7c-10.5-4.1-17.5-7.5-22.1-10.6c-6.5-4.3-8.5-7.4-8.5-12.9c0-10,9.4-15.6,24.9-14.8c9.8,0.5,17.8,2.4,26.9,6.3c2.3,1,4.1,1.8,4.2,1.7c1.4-2.2,18.2-31.8,18.2-32.1c0-0.6-7.8-4.3-13.9-6.6c-6-2.2-14.7-4.3-20.7-5l-5-0.6V21.2V10h-18h-18V22.4z"/></g></g></g>
</svg>