<?xml version="1.0" encoding="utf-8"?>
<!-- Svg Vector Icons : http://www.onlinewebfonts.com/icon -->
<!DOCTYPE svg PUBLIC "-//W3C//DTD SVG 1.1//EN" "http://www.w3.org/Graphics/SVG/1.1/DTD/svg11.dtd">
<svg version="1.1" xmlns="http://www.w3.org/2000/svg" xmlns:xlink="http://www.w3.org/1999/xlink" x="0px" y="0px" viewBox="0 0 256 256" enable-background="new 0 0 256 256" xml:space="preserve">
<metadata> Svg Vector Icons : http://www.onlinewebfonts.com/icon </metadata>
<g><g><path fill="currentColor" d="M206.4,147.4c-10.9-10.9-25.4-16.9-40.8-16.9c-15.4,0-29.9,6-40.8,16.9c-10.9,10.9-16.9,25.4-16.9,40.8s6,29.9,16.9,40.8c10.9,10.9,25.4,16.9,40.8,16.9c15.4,0,29.9-6,40.8-16.9c10.9-10.9,16.9-25.4,16.9-40.8S217.3,158.3,206.4,147.4L206.4,147.4z M203.4,167.4l-52.7,52.7c0,0-0.1,0.1-0.1,0.1c0,0-0.1,0.1-0.1,0.1c-0.9,0.9-2.1,1.4-3.3,1.4c-1.2,0-2.4-0.5-3.3-1.4l-22.5-22.5c-1.9-1.9-1.9-4.8,0-6.7c1.9-1.9,4.8-1.9,6.7,0l19.2,19.2l49.6-49.6c1.9-1.9,4.8-1.9,6.7,0C205.3,162.6,205.3,165.6,203.4,167.4L203.4,167.4z M103.7,214.4c-2.3-5.4-3.8-11-4.6-16.7H59.8c-2.4,0-4.3-1.9-4.3-4.3v-0.8c0-2.4,1.9-4.3,4.3-4.3h38.6c0-9.1,1.8-17.9,5.3-26.2c2.5-5.9,5.8-11.3,9.8-16.2H59.8c-2.4,0-4.3-1.9-4.3-4.3v-0.8c0-2.4,1.9-4.3,4.3-4.3h63c5-4.1,10.6-7.5,16.6-10.1c8.3-3.5,17.1-5.3,26.2-5.3c9.1,0,17.9,1.8,26.2,5.3c0.2,0.1,0.5,0.2,0.7,0.3v-67c0-14.6-7.9-26.4-17.8-26.4H156v-9.8c0-7.4-6-13.4-13.4-13.4h-1.7c-7.4,0-13.4,6-13.4,13.4v9.8H97.6v-9.8c0-7.4-6-13.4-13.4-13.4h-1.7c-7.4,0-13.4,6-13.4,13.4v9.8H50.4c-9.8,0-17.7,11.8-17.7,26.4v151.9c0,14.6,7.9,26.4,17.7,26.4h69.9c-0.8-0.7-1.5-1.4-2.3-2.2C111.9,229.6,107,222.4,103.7,214.4L103.7,214.4z M137,23.4c0-2.2,1.8-3.9,3.9-3.9h1.7c2.2,0,3.9,1.8,3.9,3.9v30.4c0,2.2-1.8,3.9-3.9,3.9h-1.7c-2.2,0-3.9-1.8-3.9-3.9V23.4L137,23.4z M78.6,23.4c0-2.2,1.8-3.9,3.9-3.9h1.7c2.2,0,3.9,1.8,3.9,3.9v30.4c0,2.2-1.8,3.9-3.9,3.9h-1.7c-2.2,0-3.9-1.8-3.9-3.9V23.4L78.6,23.4z M55.5,88.9c0-2.4,1.9-4.3,4.3-4.3h106.9c2.4,0,4.3,1.9,4.3,4.3v0.8c0,2.4-1.9,4.3-4.3,4.3H59.8c-2.4,0-4.3-1.9-4.3-4.3V88.9L55.5,88.9z"/></g></g>
</svg>