<?xml version="1.0" encoding="utf-8"?>
<!-- Svg Vector Icons : http://www.onlinewebfonts.com/icon -->
<!DOCTYPE svg PUBLIC "-//W3C//DTD SVG 1.1//EN" "http://www.w3.org/Graphics/SVG/1.1/DTD/svg11.dtd">
<svg version="1.1" xmlns="http://www.w3.org/2000/svg" xmlns:xlink="http://www.w3.org/1999/xlink" x="0px" y="0px" viewBox="0 0 256 256" enable-background="new 0 0 256 256" xml:space="preserve">
<metadata> Svg Vector Icons : http://www.onlinewebfonts.com/icon </metadata>
<g><g><path fill="currentColor" d="M192.4,237.7c-7.4,0-14.3-1.4-20.9-4.2c-6.6-2.8-12.3-6.7-17.2-11.6c-4.9-4.9-8.8-10.6-11.6-17.2s-4.2-13.5-4.2-20.9c0-7.4,1.4-14.3,4.2-20.9c2.8-6.6,6.7-12.3,11.6-17.1c4.9-4.8,10.6-8.6,17.2-11.4c6.6-2.8,13.5-4.2,20.9-4.2c7.4,0,14.3,1.4,20.9,4.2c6.6,2.8,12.3,6.6,17.1,11.4c4.8,4.8,8.6,10.5,11.4,17.1c2.8,6.6,4.2,13.5,4.2,20.9c0,7.4-1.4,14.3-4.2,20.9c-2.8,6.6-6.6,12.3-11.4,17.2c-4.8,4.9-10.5,8.8-17.1,11.6C206.7,236.3,199.7,237.7,192.4,237.7L192.4,237.7L192.4,237.7z M218.9,175.2h-19.5V157c0-2.5-0.8-4.6-2.4-6.3c-1.6-1.8-3.6-2.6-6-2.6s-4.4,0.9-5.8,2.6c-1.4,1.8-2.1,3.9-2.1,6.3v18.1h-17.1c-2.5,0-4.6,0.9-6.3,2.6c-1.8,1.8-2.6,3.9-2.6,6.3s0.9,4.3,2.6,5.5c1.8,1.2,3.9,1.8,6.3,1.8h17.1v18.7c0,2.5,0.7,4.6,2.1,6.3c1.4,1.8,3.3,2.6,5.8,2.6s4.5-0.9,6-2.6c1.6-1.8,2.4-3.9,2.4-6.3v-18.7h19.5v0.5c2.5,0,4.6-0.7,6.3-2.1s2.6-3.3,2.6-5.8s-0.9-4.6-2.6-6.3S221.4,175.2,218.9,175.2L218.9,175.2L218.9,175.2z M154,109.7c-0.7,2.8-1.4,5.3-2.1,7.6c-0.7,1.9-1.6,3.9-2.6,5.9c-1.1,2-2.2,3.5-3.4,4.6c-1.6,1.2-2.7,2.6-3.3,3.9c-0.6,1.4-1.1,2.8-1.6,4.3s-0.9,3-1.4,4.6s-1.4,3.2-2.6,4.7c-4,5.3-7.1,10.3-9.1,15.2c-2,4.9-3.4,9.6-4.2,14.2c-0.8,4.5-1,9.1-0.6,13.5c0.4,4.5,1.1,8.8,2.1,13c0.7,3.2,1.8,6.4,3.2,9.8s3.5,6.9,6.2,10.5c2.7,3.6,6.2,7.1,10.4,10.5c4.2,3.4,9.5,6.7,15.8,9.8c-4.2,0.9-9.1,1.7-14.7,2.4c-4.7,0.5-10.5,1-17.5,1.4c-6.9,0.4-14.9,0.7-23.8,0.7c-4.6,0-9.8-0.2-15.9-0.5s-12.3-0.8-18.7-1.3c-6.4-0.5-12.7-1.1-18.9-1.8c-6.2-0.7-11.9-1.4-17.1-2.2c-5.2-0.8-9.6-1.6-13.1-2.5c-3.6-0.9-5.8-1.7-6.7-2.4c-1.6-1.4-2.8-5.3-3.7-11.7c-0.9-6.4-0.6-14.8,0.8-25.1c0.9-5.8,3.2-10.2,7-13.3c3.8-3.1,8.2-5.5,13.3-7.2c5.1-1.8,10.4-3.4,15.9-4.9c5.5-1.5,10.4-3.5,14.6-6.2c3.3-2.1,5.9-4.1,7.6-5.9c1.8-1.8,3-3.7,3.7-5.7s1.1-3.9,1.1-6c0-2.1-0.1-4.4-0.3-6.8c-0.4-3.7-1.6-6.6-3.8-8.7c-2.2-2.1-4.5-4.2-7-6.3c-1.4-1.1-2.6-2.6-3.7-4.7c-1.1-2.1-1.9-4.1-2.6-6c-0.9-2.3-1.6-4.8-2.1-7.6c-1.2-0.4-2.4-0.9-3.4-1.6c-0.9-0.7-1.8-1.8-2.9-3.2c-1.1-1.4-2-3.5-2.9-6.3c-0.9-2.6-1.2-5.1-0.9-7.4s0.7-4.2,1.4-5.8c0.7-1.9,1.7-3.6,2.9-5c0-5.9,0.4-11.9,1.1-17.9c0.7-5.1,1.8-10.5,3.3-16.3c1.5-5.8,3.9-11,7.2-15.5c3.2-4.4,6.5-8,10.1-10.8c3.6-2.7,7.3-4.9,11.1-6.5s7.7-2.7,11.6-3.3c3.9-0.6,7.5-0.9,11-0.9c4.6,0,8.9,0.5,13.1,1.6c4.2,1,8.1,2.5,11.7,4.2c3.6,1.8,6.8,3.7,9.6,5.9c2.8,2.2,5.1,4.4,6.8,6.7c4,5.1,7,10.7,8.8,16.8c1.8,6.1,3.2,11.9,4.1,17.3c0.9,6.3,1.2,12.6,1.1,18.9c1.1,0.9,1.9,1.9,2.6,3.2c0.7,1.1,1.2,2.5,1.6,4.2c0.4,1.8,0.4,3.9,0,6.6c-0.4,3.3-1.1,5.9-2.1,7.9c-1.1,1.9-2.2,3.4-3.4,4.5C157.1,108.3,155.6,109.2,154,109.7L154,109.7L154,109.7z"/></g></g>
</svg>